<mxfile host="app.diagrams.net" modified="2021-03-09T12:16:34.262Z" agent="5.0 (Windows NT 10.0; Win64; x64) AppleWebKit/537.36 (KHTML, like Gecko) Chrome/87.0.4280.66 Safari/537.36" etag="z8Rpoak0V5pP0S03huY9" version="14.4.5" type="github">
  <diagram id="C5RBs43oDa-KdzZeNtuy" name="Page-1">
    <mxGraphModel dx="985" dy="637" grid="1" gridSize="10" guides="1" tooltips="1" connect="1" arrows="1" fold="1" page="1" pageScale="1" pageWidth="827" pageHeight="1169" math="0" shadow="0">
      <root>
        <mxCell id="WIyWlLk6GJQsqaUBKTNV-0" />
        <mxCell id="WIyWlLk6GJQsqaUBKTNV-1" parent="WIyWlLk6GJQsqaUBKTNV-0" />
        <mxCell id="ob_x41juxpBu6-5PyjwY-3" value="" style="rounded=0;whiteSpace=wrap;html=1;fontSize=16;comic=0;" vertex="1" parent="WIyWlLk6GJQsqaUBKTNV-1">
          <mxGeometry x="30" y="80" width="730" height="410" as="geometry" />
        </mxCell>
        <mxCell id="ob_x41juxpBu6-5PyjwY-4" value="CPU" style="text;html=1;strokeColor=none;fillColor=none;align=center;verticalAlign=middle;whiteSpace=wrap;rounded=0;fontSize=18;fontStyle=1" vertex="1" parent="WIyWlLk6GJQsqaUBKTNV-1">
          <mxGeometry x="50" y="100" width="40" height="20" as="geometry" />
        </mxCell>
        <mxCell id="ob_x41juxpBu6-5PyjwY-5" value="" style="rounded=0;whiteSpace=wrap;html=1;fontSize=16;fillColor=#f5f5f5;strokeColor=#666666;fontColor=#333333;" vertex="1" parent="WIyWlLk6GJQsqaUBKTNV-1">
          <mxGeometry x="130" y="120" width="280" height="240" as="geometry" />
        </mxCell>
        <mxCell id="ob_x41juxpBu6-5PyjwY-24" style="edgeStyle=orthogonalEdgeStyle;rounded=0;orthogonalLoop=1;jettySize=auto;html=1;exitX=0.5;exitY=1;exitDx=0;exitDy=0;entryX=0.25;entryY=0;entryDx=0;entryDy=0;fontSize=16;startArrow=classic;startFill=1;" edge="1" parent="WIyWlLk6GJQsqaUBKTNV-1" source="ob_x41juxpBu6-5PyjwY-7" target="ob_x41juxpBu6-5PyjwY-17">
          <mxGeometry relative="1" as="geometry" />
        </mxCell>
        <mxCell id="ob_x41juxpBu6-5PyjwY-7" value="L1数据缓存" style="rounded=1;whiteSpace=wrap;html=1;fontSize=16;fillColor=#dae8fc;strokeColor=#6c8ebf;" vertex="1" parent="WIyWlLk6GJQsqaUBKTNV-1">
          <mxGeometry x="153" y="170" width="109" height="50" as="geometry" />
        </mxCell>
        <mxCell id="ob_x41juxpBu6-5PyjwY-26" style="edgeStyle=orthogonalEdgeStyle;rounded=0;orthogonalLoop=1;jettySize=auto;html=1;entryX=0.75;entryY=0;entryDx=0;entryDy=0;fontSize=16;startArrow=classic;startFill=1;" edge="1" parent="WIyWlLk6GJQsqaUBKTNV-1" source="ob_x41juxpBu6-5PyjwY-9" target="ob_x41juxpBu6-5PyjwY-17">
          <mxGeometry relative="1" as="geometry" />
        </mxCell>
        <mxCell id="ob_x41juxpBu6-5PyjwY-9" value="L1指令缓存" style="rounded=1;whiteSpace=wrap;html=1;fontSize=16;fillColor=#dae8fc;strokeColor=#6c8ebf;" vertex="1" parent="WIyWlLk6GJQsqaUBKTNV-1">
          <mxGeometry x="272" y="170" width="100" height="50" as="geometry" />
        </mxCell>
        <mxCell id="ob_x41juxpBu6-5PyjwY-15" value="核心1" style="text;html=1;strokeColor=none;fillColor=none;align=center;verticalAlign=middle;whiteSpace=wrap;rounded=0;fontSize=16;" vertex="1" parent="WIyWlLk6GJQsqaUBKTNV-1">
          <mxGeometry x="140" y="130" width="50" height="20" as="geometry" />
        </mxCell>
        <mxCell id="ob_x41juxpBu6-5PyjwY-17" value="L2缓存" style="rounded=1;whiteSpace=wrap;html=1;dashed=1;strokeColor=#6c8ebf;fontSize=16;fillColor=#dae8fc;" vertex="1" parent="WIyWlLk6GJQsqaUBKTNV-1">
          <mxGeometry x="150" y="286" width="230" height="50" as="geometry" />
        </mxCell>
        <mxCell id="ob_x41juxpBu6-5PyjwY-27" value="" style="line;strokeWidth=2;html=1;fontSize=16;dashed=1;strokeColor=#8C8C8C;" vertex="1" parent="WIyWlLk6GJQsqaUBKTNV-1">
          <mxGeometry x="50" y="390" width="695" height="10" as="geometry" />
        </mxCell>
        <mxCell id="ob_x41juxpBu6-5PyjwY-28" value="" style="rounded=0;whiteSpace=wrap;html=1;fontSize=16;fillColor=#f5f5f5;strokeColor=#666666;fontColor=#333333;" vertex="1" parent="WIyWlLk6GJQsqaUBKTNV-1">
          <mxGeometry x="440" y="120" width="280" height="240" as="geometry" />
        </mxCell>
        <mxCell id="ob_x41juxpBu6-5PyjwY-29" style="edgeStyle=orthogonalEdgeStyle;rounded=0;orthogonalLoop=1;jettySize=auto;html=1;exitX=0.5;exitY=1;exitDx=0;exitDy=0;entryX=0.25;entryY=0;entryDx=0;entryDy=0;fontSize=16;startArrow=classic;startFill=1;" edge="1" source="ob_x41juxpBu6-5PyjwY-30" target="ob_x41juxpBu6-5PyjwY-34" parent="WIyWlLk6GJQsqaUBKTNV-1">
          <mxGeometry relative="1" as="geometry" />
        </mxCell>
        <mxCell id="ob_x41juxpBu6-5PyjwY-30" value="L1数据缓存" style="rounded=1;whiteSpace=wrap;html=1;fontSize=16;fillColor=#dae8fc;strokeColor=#6c8ebf;" vertex="1" parent="WIyWlLk6GJQsqaUBKTNV-1">
          <mxGeometry x="463" y="170" width="109" height="50" as="geometry" />
        </mxCell>
        <mxCell id="ob_x41juxpBu6-5PyjwY-31" style="edgeStyle=orthogonalEdgeStyle;rounded=0;orthogonalLoop=1;jettySize=auto;html=1;entryX=0.75;entryY=0;entryDx=0;entryDy=0;fontSize=16;startArrow=classic;startFill=1;" edge="1" source="ob_x41juxpBu6-5PyjwY-32" target="ob_x41juxpBu6-5PyjwY-34" parent="WIyWlLk6GJQsqaUBKTNV-1">
          <mxGeometry relative="1" as="geometry" />
        </mxCell>
        <mxCell id="ob_x41juxpBu6-5PyjwY-32" value="L1指令缓存" style="rounded=1;whiteSpace=wrap;html=1;fontSize=16;fillColor=#dae8fc;strokeColor=#6c8ebf;" vertex="1" parent="WIyWlLk6GJQsqaUBKTNV-1">
          <mxGeometry x="582" y="170" width="100" height="50" as="geometry" />
        </mxCell>
        <mxCell id="ob_x41juxpBu6-5PyjwY-33" value="核心1" style="text;html=1;strokeColor=none;fillColor=none;align=center;verticalAlign=middle;whiteSpace=wrap;rounded=0;fontSize=16;" vertex="1" parent="WIyWlLk6GJQsqaUBKTNV-1">
          <mxGeometry x="450" y="130" width="50" height="20" as="geometry" />
        </mxCell>
        <mxCell id="ob_x41juxpBu6-5PyjwY-34" value="L2缓存" style="rounded=1;whiteSpace=wrap;html=1;dashed=1;strokeColor=#6c8ebf;fontSize=16;fillColor=#dae8fc;" vertex="1" parent="WIyWlLk6GJQsqaUBKTNV-1">
          <mxGeometry x="460" y="286" width="230" height="50" as="geometry" />
        </mxCell>
        <mxCell id="ob_x41juxpBu6-5PyjwY-35" value="" style="line;strokeWidth=2;html=1;fontSize=16;dashed=1;strokeColor=#8C8C8C;" vertex="1" parent="WIyWlLk6GJQsqaUBKTNV-1">
          <mxGeometry x="50" y="240" width="695" height="10" as="geometry" />
        </mxCell>
        <mxCell id="ob_x41juxpBu6-5PyjwY-36" value="L3缓存" style="rounded=1;whiteSpace=wrap;html=1;shadow=0;comic=0;strokeColor=#6c8ebf;fontSize=16;fillColor=#dae8fc;" vertex="1" parent="WIyWlLk6GJQsqaUBKTNV-1">
          <mxGeometry x="130" y="410" width="590" height="50" as="geometry" />
        </mxCell>
        <mxCell id="ob_x41juxpBu6-5PyjwY-38" value="" style="endArrow=classic;startArrow=classic;html=1;strokeColor=#000000;fontSize=16;entryX=0.5;entryY=1;entryDx=0;entryDy=0;" edge="1" parent="WIyWlLk6GJQsqaUBKTNV-1">
          <mxGeometry width="50" height="50" relative="1" as="geometry">
            <mxPoint x="266" y="410" as="sourcePoint" />
            <mxPoint x="266" y="336" as="targetPoint" />
          </mxGeometry>
        </mxCell>
        <mxCell id="ob_x41juxpBu6-5PyjwY-40" value="" style="endArrow=classic;startArrow=classic;html=1;strokeColor=#000000;fontSize=16;entryX=0.5;entryY=1;entryDx=0;entryDy=0;" edge="1" parent="WIyWlLk6GJQsqaUBKTNV-1">
          <mxGeometry width="50" height="50" relative="1" as="geometry">
            <mxPoint x="572" y="410" as="sourcePoint" />
            <mxPoint x="572" y="336" as="targetPoint" />
          </mxGeometry>
        </mxCell>
        <mxCell id="ob_x41juxpBu6-5PyjwY-41" value="L1 Cache" style="text;html=1;strokeColor=none;fillColor=none;align=center;verticalAlign=middle;whiteSpace=wrap;rounded=0;shadow=0;comic=0;fontSize=16;" vertex="1" parent="WIyWlLk6GJQsqaUBKTNV-1">
          <mxGeometry x="40" y="170" width="90" height="20" as="geometry" />
        </mxCell>
        <mxCell id="ob_x41juxpBu6-5PyjwY-43" value="L2 Cache" style="text;html=1;strokeColor=none;fillColor=none;align=center;verticalAlign=middle;whiteSpace=wrap;rounded=0;shadow=0;comic=0;fontSize=16;" vertex="1" parent="WIyWlLk6GJQsqaUBKTNV-1">
          <mxGeometry x="40" y="301" width="90" height="20" as="geometry" />
        </mxCell>
        <mxCell id="ob_x41juxpBu6-5PyjwY-44" value="L3 Cache" style="text;html=1;strokeColor=none;fillColor=none;align=center;verticalAlign=middle;whiteSpace=wrap;rounded=0;shadow=0;comic=0;fontSize=16;" vertex="1" parent="WIyWlLk6GJQsqaUBKTNV-1">
          <mxGeometry x="38" y="425" width="90" height="20" as="geometry" />
        </mxCell>
        <mxCell id="ob_x41juxpBu6-5PyjwY-45" value="内存" style="rounded=1;whiteSpace=wrap;html=1;shadow=0;comic=0;strokeColor=#d79b00;fontSize=16;fillColor=#ffe6cc;fontStyle=1" vertex="1" parent="WIyWlLk6GJQsqaUBKTNV-1">
          <mxGeometry x="130" y="530" width="590" height="70" as="geometry" />
        </mxCell>
        <mxCell id="ob_x41juxpBu6-5PyjwY-46" value="" style="endArrow=classic;startArrow=classic;html=1;strokeColor=#000000;fontSize=16;exitX=0.482;exitY=-0.04;exitDx=0;exitDy=0;exitPerimeter=0;entryX=0.483;entryY=1.027;entryDx=0;entryDy=0;entryPerimeter=0;" edge="1" parent="WIyWlLk6GJQsqaUBKTNV-1" source="ob_x41juxpBu6-5PyjwY-45" target="ob_x41juxpBu6-5PyjwY-36">
          <mxGeometry width="50" height="50" relative="1" as="geometry">
            <mxPoint x="390" y="570" as="sourcePoint" />
            <mxPoint x="411" y="461" as="targetPoint" />
          </mxGeometry>
        </mxCell>
      </root>
    </mxGraphModel>
  </diagram>
</mxfile>
